# AST/ASF file generated using VICON BodyLanguage
# -----------------------------------------------
:version 1.10
:name VICON
:units
  mass 1.0
  length 0.45
  angle deg
:documentation
   .ast/.asf automatically generated from VICON data using
   VICON BodyBuilder and BodyLanguage model FoxedUp or BRILLIANT.MOD
:root
   order TX TY TZ RX RY RZ
   axis XYZ
   position 0 0 0  
   orientation 0 0 0 
:bonedata
  begin
     id 1 
     name lhipjoint
     direction 0.578396 -0.714046 0.394458 
     length 2.21935 
     axis 0 0 0  XYZ
  end
  begin
     id 2 
     name lfemur
     direction 0.34202 -0.939693 0  
     length 6.39105  
     axis 0 0 20  XYZ
    dof rx ry rz
    limits (-160.0 20.0)
           (-70.0 70.0)
           (-60.0 70.0)
  end
  begin
     id 3 
     name ltibia
     direction 0.34202 -0.939693 0   
     length 6.99037   
     axis 0 0 20   XYZ
    dof rx
    limits (-10.0 170.0)
  end
  begin
     id 4 
     name lfoot
     direction 0.0582372 -0.160005 0.985397   
     length 2.06111   
     axis -90 7.62852e-016 20   XYZ
    dof rx rz
    limits (-45.0 90.0)
           (-70.0 20.0)
  end
  begin
     id 5 
     name ltoes
     direction 1.53556e-011 -4.21875e-011 1   
     length 1.04074   
     axis -90 7.62852e-016 20   XYZ
    dof rx
    limits (-90.0 20.0)
  end
  begin
     id 6 
     name rhipjoint
     direction -0.558179 -0.726269 0.40121   
     length 2.182  
     axis 0 0 0  XYZ 
  end
  begin
     id 7 
     name rfemur
     direction -0.34202 -0.939693 0   
     length 6.51172   
     axis 0 0 -20   XYZ
    dof rx ry rz
    limits (-160.0 20.0)
           (-70.0 70.0)
           (-70.0 60.0)
  end
  begin
     id 8 
     name rtibia
     direction -0.34202 -0.939693 0   
     length 7.02607   
     axis 0 0 -20   XYZ
    dof rx
    limits (-10.0 170.0)
 end
 begin
     id 9 
     name rfoot
     direction -0.0788856 -0.216737 0.973038   
     length 1.96734  
     axis -90 -7.62852e-016 -20   XYZ
    dof rx rz
    limits (-45.0 90.0)
           (-20.0 70.0)
  end
  begin
     id 10 
     name rtoes
     direction -1.53567e-011 -4.21783e-011 1   
     length 0.990825   
     axis -90 -7.62852e-016 -20   XYZ
    dof rx
    limits (-90.0 20.0)
  end
  begin
     id 11 
     name lowerback
     direction 0.00668177 0.999323 -0.0361741   
     length 1.7655   
     axis 0 0 0   XYZ
    dof rx ry rz
    limits (-20.0 45.0)
           (-30.0 30.0)
           (-30.0 30.0)
  end
  begin
     id 12 
     name upperback
     direction -0.00222086 0.99851 0.0545167   
     length 1.74912   
     axis 0 0 0   XYZ
    dof rx ry rz
    limits (-20.0 45.0)
           (-30.0 30.0)
           (-30.0 30.0)
  end
  begin
     id 13 
     name thorax
     direction -0.00733971 0.997496 0.0703443   
     length 1.75715   
     axis 0 0 0   XYZ
    dof rx ry rz
    limits (-20.0 45.0)
           (-30.0 30.0)
           (-30.0 30.0)
  end
  begin
     id 14 
     name lowerneck
     direction 0.0279797 0.994795 0.0979765   
     length 1.46939   
     axis 0 0 0   XYZ
    dof rx ry rz
    limits (-20.0 45.0)
           (-30.0 30.0)
           (-30.0 30.0)
  end
  begin
     id 15 
     name upperneck
     direction 0.00339187 0.976776 -0.214238   
     length 1.48018   
     axis 0 0 0   XYZ
    dof rx ry rz
    limits (-20.0 45.0)
           (-30.0 30.0)
           (-30.0 30.0)
  end
  begin
     id 16
     name head
     direction -0.00263506 0.996603 -0.0823096  
     length 1.4976  
     axis 0 0 0   XYZ
    dof rx ry rz
    limits (-20.0 45.0)
           (-30.0 30.0)
           (-30.0 30.0)
  end
  begin
     id 17 
     name lclavicle
     direction 0.894044 0.44508 -0.0508781  
     length 3.03024  
     axis 0 0 0   XYZ
    dof ry rz
    limits (-20.0 10.0)
           (0.0 20.0)
  end
  begin
     id 18 
     name lhumerus
     direction 1 -4.48961e-011 -2.39475e-018   
     length 4.4661   
     axis 180 -30 -90   XYZ
    dof rx ry rz
    limits (-60.0 90.0)
           (-90.0 90.0)
           (-90.0 90.0)
  end
  begin
     id 19
     name lradius
     direction 1 -4.48961e-011 9.29328e-028   
     length 3.41414   
     axis 180 -30 -90   XYZ
    dof rx
    limits (-10.0 170.0)
  end
  begin
     id 20
     name lwrist
     direction 1 -4.48985e-011 1.53461e-026   
     length 1.70707   
     axis -1.09697e-014 90 90   XYZ
    dof ry
    limits (-180.0 0.0)
 end
  begin
     id 21 
     name lhand
     direction 1 -4.48966e-011 3.06923e-026   
     length 0.328298   
     axis -1.95843e-014 90 90   XYZ
    dof rx rz
    limits (-90.0 90.0)
           (-45.0 45.0)
  end
  begin
     id 22 
     name lfingers
     direction 1 -4.48893e-011 6.13845e-026   
     length 0.264682   
     axis -3.91686e-014 90 90   XYZ
    dof rx
    limits (0.0 90.0)
  end
  begin
     id 23
     name lthumb
     direction 0.707107 -6.34876e-011 0.707107   
     length 0.380032   
     axis -90 45 2.85299e-015   XYZ
    dof rx rz
    limits (-45.0 45.0)
           (-45.0 45.0)
  end
  begin
     id 24 
     name rclavicle
     direction -0.936955 0.347862 -0.0332887   
     length 3.26927  
     axis 0 0 0   XYZ 
    dof ry rz
    limits (-10.0 20.0)
           (-20.0 0.0)
  end
  begin
     id 25 
     name rhumerus
     direction -1 -4.4896e-011 1.78637e-018  
     length 4.40431   
     axis 180 30 90   XYZ
    dof rx ry rz
    limits (-90.0 60.0)
           (-90.0 90.0)
           (-90.0 90.0)
  end
  begin
     id 26 
     name rradius
     direction -1 -4.48955e-011 9.34036e-027   
     length 3.04688   
     axis 180 30 90   XYZ
    dof rx
    limits (-10.0 170.0)
  end
  begin
     id 27 
     name rwrist
     direction -1 -4.49011e-011 1.53461e-026   
     length 1.52344   
     axis -1.09697e-014 -90 -90   XYZ
    dof ry
    limits (-180.0 0.0)
  end
  begin
     id 28
     name rhand
     direction -1 -4.48834e-011 3.06923e-026   
     length 0.500489   
     axis -1.95843e-014 -90 -90   XYZ
    dof rx rz
    limits (-90.0 90.0)
           (-45.0 45.0)
  end
  begin
     id 29
     name rfingers
     direction -1 -4.48967e-011 6.13845e-026   
     length 0.403507   
     axis -3.91686e-014 -90 -90   XYZ
    dof rx
    limits (0.0 90.0)
  end
  begin
     id 30
     name rthumb
     direction -0.707107 -6.34826e-011 0.707107   
     length 0.579358   
     axis -90 -45 -2.85299e-015   XYZ
    dof rx rz
    limits (-45.0 45.0)
           (-45.0 45.0)
  end
:hierarchy
  begin
    root lhipjoint rhipjoint lowerback
    lhipjoint lfemur
    lfemur ltibia
    ltibia lfoot
    lfoot ltoes
    rhipjoint rfemur
    rfemur rtibia
    rtibia rfoot
    rfoot rtoes
    lowerback upperback
    upperback thorax
    thorax lowerneck lclavicle rclavicle
    lowerneck upperneck
    upperneck head
    lclavicle lhumerus
    lhumerus lradius
    lradius lwrist
    lwrist lhand lthumb
    lhand lfingers
    rclavicle rhumerus
    rhumerus rradius
    rradius rwrist
    rwrist rhand rthumb
    rhand rfingers
  end

#!OML:ASF H:\IndianDance\Patient Classification 1\Patient 1\Session 1\dancer.ASF
:FULLY-SPECIFIED
:DEGREES
2405
root 38.8525 14.2313 -6.32646 15.0706 34.2068 12.9841
lowerback -4.00938 1.55527 -7.92432
upperback -7.62249 2.13325 -2.08642
thorax -5.9537 1.49535 2.20114
lowerneck -13.4117 -10.4635 -8.46739
upperneck 17.3461 -15.5297 13.8654
head 9.4831 -6.50986 4.0668
rclavicle 8.71671e-014 5.96354e-015
rhumerus 20.9548 27.3248 -49.5519
rradius 71.1339
rwrist -57.3874
rhand -39.9701 -24.1596
rfingers 7.12502
rthumb -12.939 -53.7385
lclavicle 8.71671e-014 5.96354e-015
lhumerus 15.8512 -65.0019 3.83078
lradius 116.682
lwrist 5.70959
lhand -49.7861 -23.5519
lfingers 7.12502
lthumb -22.3838 5.17133
rfemur -43.2544 -0.623799 31.2692
rtibia 48.2195
rfoot -13.0978 -6.9642
rtoes 32.8922
lfemur -1.92841 8.9254 -20.8054
ltibia 54.0577
lfoot -0.585243 -7.14049
ltoes -32.1404
2406
root 38.979 14.1739 -6.17795 14.2137 34.1878 12.4188
lowerback -3.48408 1.51886 -7.4157
upperback -7.48648 2.03558 -2.00798
thorax -6.07107 1.41694 1.99135
lowerneck -13.4212 -10.5273 -8.54712
upperneck 17.2835 -15.5922 13.8458
head 9.4756 -6.5495 4.06101
rclavicle -4.08502e-014 -2.78299e-014
rhumerus 20.3316 28.7352 -48.1339
rradius 73.7282
rwrist -55.6173
rhand -40.5491 -23.4428
rfingers 7.12502
rthumb -13.4971 -52.9854
lclavicle -4.08502e-014 -2.78299e-014
lhumerus 16.8737 -64.6084 3.90689
lradius 115.475
lwrist 6.99713
lhand -49.7217 -21.6783
lfingers 7.12502
lthumb -22.322 7.05229
rfemur -42.5251 -0.37703 31.7733
rtibia 49.4642
rfoot -13.0294 -6.53251
rtoes 35.9544
lfemur -3.99329 8.02406 -19.5118
ltibia 58.9826
lfoot 1.15608 -10.864
ltoes -28.6215
2407
root 39.1025 14.1081 -6.0341 13.2106 34.1401 11.7549
lowerback -2.78946 1.5007 -6.86009
upperback -7.34129 1.95496 -1.88023
thorax -6.27958 1.34746 1.80179
lowerneck -13.3543 -10.5754 -8.59907
upperneck 17.1444 -15.626 13.8043
head 9.41942 -6.583 4.05111
rclavicle 1.14301e-014 3.97569e-016
rhumerus 19.7837 30.148 -46.7103
rradius 76.2409
rwrist -53.5795
rhand -41.0483 -22.4646
rfingers 7.12502
rthumb -13.9782 -51.9747
lclavicle 1.14301e-014 3.97569e-016
lhumerus 17.8637 -64.1511 4.20212
lradius 114.13
lwrist 8.36308
lhand -49.59 -19.5658
lfingers 7.12502
lthumb -22.1955 9.17985
rfemur -41.7374 -0.0654576 32.3338
rtibia 50.8625
rfoot -13.5194 -6.40914
rtoes 37.8662
lfemur -6.12674 7.00048 -18.1537
ltibia 63.8704
lfoot 2.4533 -14.1711
ltoes -24.6728
2408
root 39.2227 14.0361 -5.89491 12.0424 34.0326 10.9307
lowerback -1.94613 1.49922 -6.22438
upperback -7.18769 1.89745 -1.68646
thorax -6.56822 1.28769 1.63214
lowerneck -13.2147 -10.5963 -8.64357
upperneck 16.9342 -15.6221 13.7875
head 9.32255 -6.6024 4.05784
rclavicle 1.70955e-014 -8.34896e-015
rhumerus 19.3097 31.5648 -45.3048
rradius 78.6668
rwrist -51.2938
rhand -41.5113 -21.2488
rfingers 7.12502
rthumb -14.4243 -50.7276
lclavicle 1.70955e-014 -8.34896e-015
lhumerus 18.7495 -63.635 4.75563
lradius 112.655
lwrist 9.75306
lhand -49.3758 -17.2488
lfingers 7.12502
lthumb -21.9899 11.5212
rfemur -40.8772 0.285811 33.04
rtibia 52.2519
rfoot -14.341 -6.52474
rtoes 38.7109
lfemur -8.30241 5.95602 -16.6776
ltibia 68.6406
lfoot 3.14437 -16.8516
ltoes -20.8245
2409
root 39.3402 13.9618 -5.75962 10.7376 33.835 9.92894
lowerback -1.01789 1.51135 -5.49712
upperback -7.02576 1.87095 -1.42486
thorax -6.90105 1.2397 1.47923
lowerneck -13.0329 -10.5917 -8.66071
upperneck 16.6789 -15.587 13.7866
head 9.19819 -6.60767 4.07273
rclavicle 2.36554e-014 -1.35174e-014
rhumerus 18.9007 32.9778 -43.9366
rradius 81.0024
rwrist -48.8047
rhand -41.9619 -19.8187
rfingers 7.12502
rthumb -14.8585 -49.2659
lclavicle 2.36554e-014 -1.35174e-014
lhumerus 19.4891 -63.0689 5.57783
lradius 111.059
lwrist 11.0967
lhand -49.072 -14.7576
lfingers 7.12502
lthumb -21.6981 14.0464
rfemur -39.9324 0.662975 33.9208
rtibia 53.5412
rfoot -15.3339 -6.77698
rtoes 38.8053
lfemur -10.5208 4.97998 -15.0662
ltibia 73.2245
lfoot 3.07387 -18.7427
ltoes -17.6956
2410
root 39.4555 13.8875 -5.62776 9.37142 33.5253 8.76501
lowerback -0.0893694 1.53329 -4.68956
upperback -6.87037 1.88116 -1.10036
thorax -7.24594 1.2064 1.34522
lowerneck -12.8253 -10.5639 -8.66706
upperneck 16.41 -15.5264 13.8114
head 9.06341 -6.59946 4.1001
rclavicle -8.57756e-014 -1.27222e-014
rhumerus 18.5202 34.3847 -42.6233
rradius 83.2596
rwrist -46.1723
rhand -42.4363 -18.1883
rfingers 7.12502
rthumb -15.3155 -47.6011
lclavicle -8.57756e-014 -1.27222e-014
lhumerus 20.0653 -62.4724 6.65415
lradius 109.346
lwrist 12.3381
lhand -48.6209 -12.2861
lfingers 7.12502
lthumb -21.2649 16.5674
rfemur -38.9343 1.06977 34.9653
rtibia 54.6934
rfoot -16.3094 -6.99149
rtoes 38.8249
lfemur -12.8275 4.14818 -13.3323
ltibia 77.5681
lfoot 2.14552 -19.7175
ltoes -15.7983
2411
root 39.5689 13.8141 -5.49869 8.03979 33.1001 7.50656
lowerback 0.756223 1.56541 -3.85112
upperback -6.73209 1.93306 -0.731359
thorax -7.56713 1.19234 1.23922
lowerneck -12.5972 -10.5243 -8.69296
upperneck 16.1534 -15.455 13.8691
head 8.93301 -6.58462 4.14429
rclavicle -6.11263e-014 -5.96354e-015
rhumerus 18.1111 35.7712 -41.378
rradius 85.4576
rwrist -43.4654
rhand -42.9881 -16.3404
rfingers 7.12502
rthumb -15.8469 -45.7119
lclavicle -6.11263e-014 -5.96354e-015
lhumerus 20.5167 -61.8614 7.93255
lradius 107.557
lwrist 13.4981
lhand -48.0155 -9.84641
lfingers 7.12502
lthumb -20.6833 19.0715
rfemur -37.9294 1.50586 36.1157
rtibia 55.72
rfoot -17.2995 -7.13502
rtoes 38.8036
lfemur -15.2682 3.49772 -11.5326
ltibia 81.628
lfoot 0.450473 -19.6867
ltoes -15.2979
2412
root 39.6805 13.7437 -5.37129 6.83694 32.5757 6.23988
lowerback 1.4629 1.58363 -3.05337
upperback -6.61371 1.9899 -0.341745
thorax -7.83409 1.18302 1.18003
lowerneck -12.4177 -10.46 -8.68434
upperneck 15.963 -15.3604 13.918
head 8.8278 -6.55253 4.1818
rclavicle -3.45885e-014 -7.15625e-015
rhumerus 17.6873 37.1522 -40.2173
rradius 87.6108
rwrist -40.7562
rhand -43.5376 -14.2745
rfingers 7.12502
rthumb -16.3761 -43.6032
lclavicle -3.45885e-014 -7.15625e-015
lhumerus 20.7779 -61.2206 9.40469
lradius 105.73
lwrist 14.633
lhand -47.2521 -7.48458
lfingers 7.12502
lthumb -19.9496 21.5114
rfemur -36.9784 1.96441 37.2922
rtibia 56.6457
rfoot -18.2494 -7.24483
rtoes 38.7778
lfemur -17.8979 3.02047 -9.74757
ltibia 85.3644
lfoot -1.58742 -18.6294
ltoes -15.54
2413
root 39.7906 13.6776 -5.24392 5.83676 31.9752 5.06401
lowerback 1.99624 1.59647 -2.35907
upperback -6.52506 2.0528 0.03327
thorax -8.03783 1.18239 1.16673
lowerneck -12.272 -10.3848 -8.66197
upperneck 15.8511 -15.2604 13.9588
head 8.75295 -6.51298 4.21384
rclavicle 1.88845e-015 6.36111e-015
rhumerus 17.1749 38.5206 -39.1592
rradius 89.7412
rwrist -38.1006
rhand -44.0634 -11.9848
rfingers 7.12502
rthumb -16.8822 -41.271
lclavicle 1.88845e-015 6.36111e-015
lhumerus 20.9415 -60.5676 10.9836
lradius 103.886
lwrist 15.8126
lhand -46.3407 -5.27832
lfingers 7.12502
lthumb -19.0733 23.8065
rfemur -36.1254 2.42343 38.4018
rtibia 57.4988
rfoot -19.1392 -7.27807
rtoes 38.7675
lfemur -20.719 2.7191 -8.09142
ltibia 88.7221
lfoot -3.67462 -16.6022
ltoes -16.2207
2414
root 39.8993 13.6168 -5.11521 5.08406 31.334 4.07766
lowerback 2.35384 1.59665 -1.82933
upperback -6.46109 2.09852 0.357259
thorax -8.17069 1.18191 1.19777
lowerneck -12.1655 -10.2971 -8.60606
upperneck 15.8074 -15.1532 13.9841
head 8.70333 -6.46485 4.23488
rclavicle -3.04141e-014 -1.74931e-014
rhumerus 16.5543 39.8752 -38.2381
rradius 91.8529
rwrist -35.5248
rhand -44.5499 -9.4643
rfingers 7.12502
rthumb -17.3505 -38.7099
lclavicle -3.04141e-014 -1.74931e-014
lhumerus 21.0292 -59.9074 12.619
lradius 102.067
lwrist 17.1164
lhand -45.3209 -3.2151
lfingers 7.12502
lthumb -18.0924 25.9634
rfemur -35.3883 2.83465 39.3508
rtibia 58.3069
rfoot -19.9692 -7.21861
rtoes 38.7305
lfemur -23.7126 2.55135 -6.69361
ltibia 91.6445
lfoot -5.48269 -13.8499
ltoes -16.7995
2415
root 40.0065 13.5615 -4.98388 4.56698 30.6795 3.31729
lowerback 2.56421 1.58197 -1.488
upperback -6.41522 2.11426 0.611695
thorax -8.24133 1.17635 1.26784
lowerneck -12.1056 -10.1983 -8.51029
upperneck 15.8328 -15.0434 14.0015
head 8.68136 -6.4088 4.24552
rclavicle -4.02539e-014 -1.11319e-014
rhumerus 15.8102 41.2206 -37.4829
rradius 93.9464
rwrist -33.0407
rhand -44.953 -6.75646
rfingers 7.12502
rthumb -17.7384 -35.9674
lclavicle -4.02539e-014 -1.11319e-014
lhumerus 21.0654 -59.2361 14.2739
lradius 100.286
lwrist 18.6125
lhand -44.1944 -1.377
lfingers 7.12502
lthumb -17.0083 27.8984
rfemur -34.7482 3.17062 40.1003
rtibia 59.0873
rfoot -20.7488 -7.08178
rtoes 38.593
lfemur -26.8395 2.45377 -5.61354
ltibia 94.0896
lfoot -6.80565 -10.7624
ltoes -16.5884
